<?xml version="1.0" standalone="no"?>
<!DOCTYPE svg PUBLIC "-//W3C//DTD SVG 20010904//EN"
 "http://www.w3.org/TR/2001/REC-SVG-20010904/DTD/svg10.dtd">
<svg version="1.0" xmlns="http://www.w3.org/2000/svg"
 width="902.000000pt" height="902.000000pt" viewBox="0 0 902.000000 902.000000"
 preserveAspectRatio="xMidYMid meet">
<metadata>
Created by potrace 1.11, written by Peter Selinger 2001-2013
</metadata>
<g transform="translate(0.000000,902.000000) scale(0.100000,-0.100000)"
fill="#000000" stroke="none">
<path d="M1856 8025 c-15 -8 -34 -15 -40 -15 -7 0 -28 -16 -47 -36 -33 -34
-34 -37 -34 -119 0 -93 12 -120 75 -162 26 -18 47 -23 102 -23 68 0 70 1 113
43 52 49 72 107 61 178 -9 58 -44 99 -110 128 -57 25 -81 26 -120 6z"/>
<path d="M4552 7933 c-16 -13 -24 -34 -29 -71 -7 -65 -31 -86 -111 -102 -70
-14 -111 -29 -135 -48 -23 -20 -10 -33 78 -76 17 -9 40 -26 53 -40 23 -25 23
-29 20 -191 -4 -205 -3 -206 97 -70 103 141 112 145 200 95 103 -60 163 -87
175 -80 14 9 -5 53 -54 123 -44 63 -38 83 60 190 27 31 64 94 64 110 0 15 -5
18 -22 13 -13 -3 -60 -9 -106 -12 l-84 -7 -92 92 c-92 91 -93 92 -114 74z"/>
<path d="M1453 7727 c-28 -17 -72 -47 -98 -64 -25 -18 -50 -33 -55 -33 -5 0
-13 -6 -17 -14 -4 -7 -21 -21 -38 -30 -76 -42 -193 -125 -325 -231 -109 -86
-424 -390 -546 -525 -92 -102 -254 -328 -254 -354 0 -9 -10 -41 -21 -72 -24
-64 -22 -148 5 -189 9 -14 16 -33 16 -43 0 -11 6 -25 14 -31 8 -6 20 -26 27
-44 20 -50 81 -127 152 -192 83 -76 118 -105 128 -105 7 0 79 -41 154 -87 11
-7 36 -20 55 -29 19 -9 43 -23 53 -32 15 -14 19 -13 36 2 33 30 53 83 41 105
-10 19 -109 91 -124 91 -4 0 -26 15 -49 34 -23 18 -58 41 -77 51 -41 21 -147
128 -175 176 -38 68 -65 143 -65 185 0 44 30 155 56 209 24 49 114 153 265
304 113 114 337 301 871 725 70 56 127 107 128 115 0 8 -6 21 -14 30 -50 56
-76 81 -83 81 -4 0 -31 -15 -60 -33z"/>
<path d="M5628 7624 c-4 -3 -71 -10 -150 -16 -78 -5 -186 -13 -238 -16 l-95
-7 -3 -65 c-1 -36 1 -90 5 -120 8 -51 10 -55 37 -58 15 -2 72 4 125 13 53 9
175 21 271 25 96 5 236 16 310 25 112 14 204 16 545 12 233 -3 429 -10 455
-16 25 -6 111 -15 191 -20 80 -6 158 -15 172 -20 14 -6 77 -15 139 -20 62 -5
125 -14 138 -19 14 -5 58 -15 99 -21 40 -6 85 -18 99 -25 15 -8 47 -17 72 -21
25 -4 54 -13 65 -20 11 -7 36 -16 55 -20 19 -4 42 -13 50 -20 8 -7 26 -16 40
-20 14 -4 36 -16 49 -26 13 -11 29 -19 36 -19 6 0 20 -9 30 -20 10 -11 22 -20
27 -20 18 0 87 -63 103 -94 9 -17 23 -42 31 -56 20 -36 17 -94 -6 -140 -11
-22 -20 -44 -20 -51 0 -20 -93 -133 -178 -216 -49 -48 -285 -237 -367 -293
-20 -14 -42 -30 -49 -36 -6 -6 -25 -19 -41 -27 -17 -9 -43 -26 -58 -39 l-28
-23 36 -55 c19 -30 35 -58 35 -62 0 -23 79 4 165 57 22 13 51 29 65 35 39 17
42 18 90 50 25 16 54 34 65 39 12 5 27 16 34 25 7 9 18 16 23 16 5 0 35 17 66
38 31 22 62 41 69 43 36 13 210 206 241 269 7 14 19 36 27 50 8 14 15 39 15
55 0 17 7 58 16 90 14 56 14 65 -6 145 -11 47 -27 99 -35 115 -8 17 -19 41
-24 55 -11 32 -89 135 -133 177 -32 31 -219 133 -243 133 -7 0 -18 6 -24 14
-7 8 -27 17 -45 20 -19 4 -48 13 -65 22 -16 8 -52 19 -78 24 -26 5 -73 16
-103 24 -30 9 -71 16 -91 16 -20 0 -58 7 -85 15 -27 8 -83 18 -124 21 -41 3
-102 12 -135 20 -58 13 -370 34 -805 54 -226 10 -853 13 -862 4z"/>
<path d="M3025 7538 c-11 -7 -26 -18 -33 -25 -7 -7 -17 -13 -21 -13 -4 0 -20
-19 -35 -42 -57 -87 -24 -199 75 -253 56 -30 97 -32 146 -5 21 11 43 20 49 20
6 0 25 23 43 51 31 46 33 55 29 114 -4 72 -17 91 -87 137 -35 21 -57 28 -95
28 -28 0 -60 -6 -71 -12z"/>
<path d="M5008 7045 c-9 -10 -171 -25 -368 -35 -102 -5 -216 -16 -255 -24 -38
-8 -110 -18 -160 -22 -49 -4 -101 -12 -115 -19 -14 -7 -52 -16 -85 -20 -33 -4
-74 -13 -90 -19 -17 -7 -53 -16 -80 -20 -28 -4 -77 -17 -110 -29 -51 -18 -79
-21 -195 -19 -136 1 -251 12 -370 34 -45 8 -225 12 -585 12 -482 0 -576 -4
-695 -29 -14 -3 -61 -7 -105 -10 -75 -5 -238 -33 -330 -56 -22 -6 -71 -18
-110 -28 -38 -9 -80 -23 -92 -29 -12 -7 -29 -12 -38 -12 -18 0 -52 -14 -155
-63 -65 -32 -178 -114 -215 -158 -61 -71 -64 -81 -66 -195 -2 -100 0 -113 25
-161 22 -43 110 -133 129 -133 3 0 27 -15 53 -32 54 -39 64 -45 84 -52 8 -3
38 -19 65 -36 28 -16 61 -35 75 -42 14 -7 28 -17 31 -21 11 -16 -4 -51 -41
-97 -77 -94 -90 -128 -90 -233 0 -83 3 -101 26 -144 40 -76 87 -136 130 -166
94 -67 152 -103 211 -131 17 -9 34 -20 37 -25 4 -5 21 -13 39 -17 17 -3 43
-15 56 -25 13 -11 30 -19 38 -19 8 0 26 -9 40 -20 14 -11 32 -20 39 -20 8 0
31 -9 51 -20 21 -11 45 -20 54 -20 9 0 22 -6 28 -14 7 -8 27 -18 44 -21 18 -4
47 -15 65 -26 26 -15 37 -16 57 -7 28 13 30 19 46 128 18 131 18 133 -16 144
-16 5 -52 17 -80 27 -76 27 -145 49 -190 60 -22 5 -58 18 -80 28 -186 86 -201
95 -278 169 -27 26 -28 30 -25 108 2 61 8 87 20 101 10 11 18 27 18 35 0 9 14
28 32 43 28 24 38 26 76 21 25 -3 63 -14 86 -25 23 -10 57 -24 76 -31 19 -6
64 -23 100 -37 36 -13 85 -30 110 -38 25 -7 62 -20 82 -29 21 -9 47 -16 58
-16 12 0 33 -6 48 -14 54 -27 68 -27 95 -2 18 17 27 35 27 56 0 17 5 40 10 51
26 48 -31 88 -170 121 -25 6 -49 14 -55 18 -5 5 -36 16 -67 25 -32 9 -60 21
-63 26 -4 5 -14 9 -23 9 -9 0 -39 11 -67 25 -27 13 -56 25 -62 25 -35 1 7 63
51 76 12 4 28 12 36 19 8 7 35 18 60 25 24 7 53 18 64 26 11 8 30 14 41 14 11
0 29 6 40 14 11 8 40 20 65 27 25 7 54 19 65 26 11 7 26 13 34 13 8 0 33 8 55
19 43 20 111 44 186 66 25 7 62 20 82 29 21 9 49 16 63 16 14 0 43 9 65 20 22
11 50 20 62 20 13 0 50 9 83 19 33 11 80 25 105 30 150 37 177 44 200 53 14 6
54 17 90 24 36 7 83 19 105 28 22 8 55 15 73 16 18 0 45 6 60 14 15 8 50 17
77 22 27 4 63 13 80 20 71 29 192 36 435 24 136 -6 257 -17 287 -26 28 -8 66
-14 85 -14 18 -1 62 -7 98 -16 36 -8 103 -19 150 -25 47 -5 101 -16 120 -23
19 -8 67 -17 105 -21 39 -3 90 -13 115 -20 25 -8 80 -19 123 -25 43 -5 87 -14
97 -20 10 -5 44 -13 76 -16 33 -4 81 -15 107 -25 26 -11 61 -19 77 -19 16 0
53 -8 82 -19 29 -10 76 -23 103 -29 88 -19 179 -43 215 -57 19 -8 50 -17 69
-21 18 -3 52 -15 75 -25 22 -10 51 -19 64 -19 13 0 37 -8 55 -17 18 -9 48 -20
67 -24 64 -14 167 -53 254 -96 17 -8 53 -19 80 -24 45 -8 85 -36 86 -60 0 -4
-44 -46 -97 -95 -130 -118 -283 -271 -283 -283 0 -6 6 -14 13 -18 7 -4 30 -34
50 -65 28 -42 44 -58 60 -58 14 0 63 41 141 116 65 64 175 168 245 231 l126
114 45 -5 c171 -22 665 -297 686 -382 3 -13 12 -28 20 -35 9 -8 14 -33 14 -78
0 -61 -3 -70 -27 -92 -80 -72 -237 -151 -328 -164 -27 -4 -58 -11 -67 -16 -9
-5 -52 -14 -95 -19 -43 -6 -98 -17 -123 -25 -51 -16 -182 -41 -318 -60 -51 -7
-96 -15 -99 -18 -9 -10 66 -190 84 -200 11 -6 220 19 260 31 17 6 64 13 105
17 40 3 93 12 118 20 25 8 71 19 103 24 31 6 66 15 78 21 11 6 41 15 67 20 53
10 154 43 192 64 14 7 39 16 57 19 36 7 148 80 178 116 60 73 75 122 76 246 1
86 -5 105 -51 175 -16 25 -33 52 -36 60 -8 17 -16 25 -107 108 -38 34 -102 81
-143 104 -41 24 -90 52 -109 63 -18 11 -59 35 -92 54 -69 40 -123 80 -123 91
0 5 6 15 13 22 18 19 129 158 153 193 11 17 34 59 50 95 27 60 29 74 28 175
-1 103 -2 113 -32 167 -37 70 -144 168 -222 206 -99 47 -235 91 -360 116 -36
7 -87 20 -113 30 -26 9 -67 16 -90 16 -23 0 -67 7 -97 15 -30 8 -127 20 -215
25 -88 6 -206 17 -263 25 -80 12 -211 15 -586 15 -265 0 -485 -2 -488 -5z
m1428 -261 c38 -8 114 -17 169 -20 95 -5 229 -36 295 -69 14 -7 38 -15 54 -19
105 -25 226 -188 226 -303 0 -92 -69 -203 -174 -280 -59 -43 -63 -44 -116 -38
-30 4 -64 12 -75 19 -11 7 -42 16 -70 20 -27 4 -76 16 -108 27 -31 10 -68 19
-82 19 -14 0 -42 9 -62 20 -21 11 -50 20 -65 20 -15 0 -50 9 -78 20 -28 11
-62 20 -76 20 -14 0 -39 7 -57 16 -17 9 -56 23 -87 30 -30 7 -73 17 -95 23
-76 20 -170 42 -220 52 -27 6 -63 15 -80 21 -34 11 -68 19 -205 49 -52 11
-132 29 -176 40 -45 10 -93 19 -106 19 -13 0 -51 7 -83 16 -33 9 -92 20 -130
24 -39 5 -91 16 -115 24 -25 9 -63 16 -86 16 -22 0 -65 8 -95 18 -30 11 -85
22 -123 26 -38 4 -84 13 -104 21 -19 8 -44 15 -56 15 -12 0 -31 6 -41 14 -19
14 -19 15 5 24 119 45 233 69 410 87 80 8 168 19 195 25 28 5 61 12 75 14 14
2 304 4 646 4 517 1 632 -1 690 -14z m-3459 -127 c8 -12 -52 -67 -72 -67 -8 0
-29 -9 -47 -20 -18 -11 -41 -20 -51 -20 -11 0 -30 -9 -44 -20 -14 -11 -33 -20
-42 -20 -9 0 -33 -9 -54 -20 -20 -11 -45 -20 -54 -20 -10 0 -40 -8 -68 -19
-75 -28 -144 -51 -200 -66 -68 -19 -154 -50 -190 -69 -16 -9 -39 -16 -50 -16
-11 0 -29 -6 -40 -14 -11 -8 -39 -19 -63 -26 -23 -8 -47 -19 -53 -27 -6 -7
-17 -13 -24 -13 -12 0 -99 -39 -135 -61 -8 -5 -26 -14 -40 -19 -14 -6 -32 -14
-40 -19 -8 -6 -51 -28 -95 -51 -44 -22 -104 -54 -134 -70 l-54 -28 -59 30
c-50 25 -114 68 -168 113 -40 34 -120 119 -120 128 0 6 -9 30 -21 54 -23 48
-18 76 24 129 20 26 101 67 155 79 16 3 47 15 68 26 21 10 50 19 64 19 14 0
54 9 90 19 88 27 232 52 362 62 58 5 124 16 145 24 31 11 125 14 521 13 305
-1 485 -5 489 -11z"/>
<path d="M6380 6695 c-14 -8 -32 -14 -41 -15 -28 0 -76 -64 -89 -119 -10 -43
-9 -58 5 -98 8 -26 29 -63 45 -82 26 -31 34 -34 98 -39 118 -8 180 28 206 120
14 46 14 60 2 106 -19 69 -50 99 -128 123 -74 22 -67 22 -98 4z"/>
<path d="M8462 6153 c-11 -16 -26 -41 -35 -58 -9 -16 -27 -42 -42 -57 l-26
-28 -145 0 c-121 0 -146 -2 -151 -15 -3 -9 1 -21 10 -28 8 -7 44 -52 81 -101
72 -96 78 -119 47 -177 -11 -20 -23 -53 -26 -73 -4 -20 -11 -39 -16 -42 -5 -2
-13 -24 -19 -47 -6 -23 -18 -59 -27 -80 -18 -41 -12 -57 13 -36 9 7 24 18 34
24 29 16 132 87 178 122 66 50 53 56 202 -107 87 -96 105 -101 97 -30 -3 27
-13 65 -21 82 -8 18 -17 54 -20 79 -5 43 -3 47 27 70 18 13 43 30 57 36 30 15
140 79 193 112 21 13 35 27 30 31 -4 5 -42 13 -83 19 -87 12 -166 33 -179 46
-6 6 -32 57 -58 115 -53 115 -83 170 -94 170 -4 0 -16 -12 -27 -27z"/>
<path d="M3910 5931 c-47 -4 -95 -13 -108 -20 -13 -6 -49 -16 -80 -21 -31 -5
-73 -16 -92 -24 -19 -7 -57 -18 -85 -24 -27 -6 -72 -17 -100 -26 -27 -9 -72
-24 -100 -32 -140 -44 -280 -133 -305 -194 -7 -16 -24 -34 -38 -39 -15 -6 -45
-22 -67 -35 -22 -14 -53 -32 -70 -42 -32 -18 -113 -81 -130 -100 -5 -7 -37
-35 -70 -62 -88 -74 -195 -178 -264 -255 -109 -123 -369 -532 -371 -582 0 -12
-9 -38 -20 -60 -11 -22 -20 -50 -20 -62 0 -13 -9 -49 -19 -80 -11 -32 -22 -89
-26 -128 -4 -38 -11 -78 -17 -88 -18 -35 -51 -381 -55 -592 -4 -178 -1 -233
16 -352 12 -77 21 -154 21 -171 0 -17 7 -52 15 -77 9 -25 17 -67 18 -95 2 -46
-1 -52 -42 -94 l-44 -45 11 -58 c16 -88 49 -201 67 -225 8 -13 15 -29 15 -36
0 -24 137 -182 207 -237 37 -30 89 -74 116 -98 42 -39 47 -49 47 -86 0 -23 8
-67 19 -99 10 -31 22 -81 25 -111 4 -29 13 -63 20 -75 8 -11 17 -39 21 -61 4
-22 13 -51 20 -65 7 -14 18 -36 25 -50 37 -78 91 -159 136 -201 42 -39 139
-109 152 -109 4 0 25 -10 47 -22 40 -22 58 -26 235 -48 109 -14 398 -8 475 11
28 6 69 20 93 30 23 10 51 19 62 19 10 0 32 11 48 25 17 14 32 25 35 25 15 0
98 64 128 98 38 44 119 171 163 257 9 17 20 37 25 45 5 8 35 67 65 131 55 115
57 117 98 127 64 16 90 0 104 -66 7 -29 16 -58 22 -65 5 -6 13 -38 16 -70 7
-55 20 -84 102 -233 83 -149 127 -202 217 -255 96 -56 101 -59 117 -59 8 0 29
-9 45 -20 17 -11 44 -20 61 -20 17 0 57 -9 90 -21 50 -17 83 -20 219 -20 145
1 171 4 270 30 190 51 202 57 287 143 52 53 88 100 113 150 20 40 40 80 45 88
25 44 60 121 60 133 0 7 9 30 20 52 11 22 20 50 20 63 0 12 9 40 20 62 11 22
20 51 20 66 0 50 37 109 89 142 27 18 54 32 59 32 6 0 15 6 19 13 4 7 33 28
63 46 30 17 75 47 100 66 25 18 49 34 54 34 4 1 29 18 55 39 25 21 67 52 92
68 57 36 129 127 129 163 0 58 -99 124 -161 108 -35 -9 -67 12 -73 48 -8 41
-21 52 -66 57 l-35 3 3 65 c2 36 11 83 19 105 8 22 19 60 24 85 5 25 16 63 24
85 9 22 20 83 25 135 33 354 43 440 56 480 17 50 38 251 37 350 -1 121 -15
265 -29 292 -8 15 -19 51 -25 80 -7 29 -20 69 -30 88 -11 19 -19 40 -19 46 0
17 -50 104 -60 104 -9 0 -60 158 -60 185 0 10 -8 32 -19 49 -10 17 -22 41 -26
54 -3 13 -27 53 -51 90 -24 37 -50 76 -57 86 -43 67 -196 230 -338 361 -119
110 -142 130 -169 143 -14 6 -32 16 -40 21 -8 5 -42 21 -75 36 -33 15 -67 31
-75 36 -8 5 -22 12 -30 15 -51 21 -146 67 -150 73 -3 3 -16 14 -30 23 -14 10
-45 32 -70 49 -44 31 -45 32 -139 26 -51 -3 -120 -1 -152 5 -50 9 -60 14 -65
34 -4 16 0 31 11 44 25 28 13 67 -23 75 -16 3 -62 -1 -103 -9 -41 -8 -102 -17
-137 -21 -35 -3 -72 -10 -84 -14 -14 -5 -41 3 -88 27 l-68 34 -188 3 c-104 2
-227 0 -274 -4z m-677 -1496 c54 -8 108 -21 120 -30 12 -8 28 -15 36 -15 13 0
43 -12 121 -49 14 -6 68 -34 120 -62 52 -27 121 -59 154 -70 56 -19 61 -19
130 -3 39 9 91 23 116 31 25 8 61 18 80 23 19 5 51 17 70 26 30 15 63 18 245
16 115 -1 230 -6 255 -11 25 -6 70 -15 100 -22 30 -6 89 -20 130 -31 50 -14
107 -21 175 -22 137 -1 150 6 359 190 32 28 88 38 131 24 31 -10 40 -24 90
-124 30 -62 55 -119 55 -127 0 -8 9 -32 20 -54 11 -22 20 -45 20 -52 0 -7 9
-17 20 -23 11 -6 20 -17 20 -25 0 -7 3 -15 8 -17 7 -3 58 -69 77 -99 6 -9 26
-41 46 -70 43 -64 65 -105 117 -219 59 -130 76 -290 51 -493 l-11 -89 41 -59
c45 -66 48 -84 26 -173 -8 -34 -19 -101 -25 -151 -6 -49 -17 -119 -25 -155 -8
-36 -15 -78 -15 -94 0 -16 -12 -64 -26 -108 -20 -58 -30 -78 -41 -74 -8 3 -67
11 -131 16 -64 6 -130 15 -146 20 -16 6 -44 10 -62 10 -19 0 -34 5 -34 11 0 6
-8 9 -18 7 -10 -3 -108 0 -218 7 -109 7 -203 10 -209 7 -13 -8 -12 -8 -145
-16 -63 -4 -135 -13 -160 -21 -25 -7 -67 -16 -95 -20 -27 -4 -69 -15 -92 -26
-23 -10 -47 -19 -54 -19 -19 0 -160 -49 -191 -65 -14 -8 -32 -15 -40 -15 -7 0
-30 -9 -51 -20 -41 -22 -128 -27 -174 -9 -15 6 -61 17 -102 25 -41 8 -79 18
-85 23 -6 5 -31 12 -56 16 -25 4 -63 15 -85 25 -22 10 -59 21 -82 25 -24 4
-45 11 -48 15 -3 5 -31 14 -63 20 -31 7 -69 18 -83 25 -14 8 -54 16 -90 20
-35 4 -98 14 -139 23 -61 14 -129 17 -365 17 -190 -1 -313 -5 -355 -14 -36 -6
-113 -18 -173 -26 -59 -8 -112 -17 -118 -20 -13 -9 -69 14 -69 27 0 6 -11 23
-25 40 -23 27 -25 38 -25 121 1 249 29 452 71 509 10 15 19 31 19 35 0 5 16
22 36 38 20 17 41 39 47 50 6 11 15 94 18 185 9 223 27 440 39 470 6 14 16 61
24 105 14 85 41 200 58 250 6 17 17 53 24 80 8 28 21 64 29 82 8 17 15 38 15
47 0 8 11 32 24 53 48 74 40 71 198 71 98 0 159 5 193 15 28 8 61 13 75 11 14
-2 69 -11 123 -19z"/>
<path d="M2528 5857 c-64 -30 -108 -97 -108 -164 0 -49 31 -132 52 -139 10 -3
18 -9 18 -13 0 -17 54 -31 118 -31 69 0 66 -1 144 60 10 8 25 38 32 66 26 99
-18 188 -104 214 -57 17 -123 20 -152 7z"/>
<path d="M6852 5485 c-24 -13 -53 -36 -64 -50 -27 -35 -40 -104 -29 -162 7
-38 18 -55 57 -90 45 -41 50 -43 112 -43 48 0 74 6 104 22 50 29 98 98 98 142
0 53 -36 121 -88 165 -42 36 -53 41 -97 40 -33 0 -65 -9 -93 -24z"/>
<path d="M1094 5143 c-16 -16 -59 -52 -94 -81 -81 -68 -73 -70 -248 35 -68 41
-111 63 -122 63 -16 0 -12 -60 9 -115 10 -27 28 -79 39 -113 l21 -64 -30 -25
c-35 -30 -98 -73 -106 -73 -3 0 -18 -11 -35 -25 -16 -14 -35 -25 -41 -25 -19
-1 -80 -57 -73 -68 3 -6 63 -13 133 -17 178 -10 198 -19 246 -121 53 -112 84
-168 94 -171 10 -3 60 91 69 129 3 15 12 32 20 39 8 6 14 21 14 32 0 25 48 97
64 97 6 0 25 7 41 16 17 9 48 22 70 29 118 40 149 53 152 62 2 5 -32 35 -76
67 -75 53 -80 60 -87 101 -3 25 -4 80 -1 124 5 90 0 131 -17 131 -6 0 -25 -12
-42 -27z"/>
<path d="M7198 4034 c-26 -14 -59 -42 -75 -62 -25 -33 -28 -45 -27 -111 l1
-73 47 -46 c35 -33 59 -47 92 -53 51 -10 116 1 142 24 9 7 24 17 33 20 21 7
59 85 59 122 0 48 -50 134 -97 165 -61 42 -116 46 -175 14z"/>
</g>
</svg>
